<?xml version="1.0" encoding="iso-8859-1"?>
<!-- Generator: Adobe Illustrator 19.0.0, SVG Export Plug-In . SVG Version: 6.00 Build 0)  -->
<svg version="1.1" id="Layer_1" xmlns="http://www.w3.org/2000/svg" xmlns:xlink="http://www.w3.org/1999/xlink" x="0px" y="0px"
	 viewBox="0 0 228.001 228.001" style="enable-background:new 0 0 228.001 228.001;" xml:space="preserve">
<g>
	<g>
		<path d="M212,96.001c-7.433,0-13.643,5.119-15.432,12h-60.929c-0.447-2.648-1.303-5.158-2.544-7.438l41.764-41.764
			c1.564,0.748,3.294,1.202,5.141,1.202c6.617,0,12-5.383,12-12s-5.383-12-12-12s-12,5.383-12,12c0,1.847,0.454,3.577,1.202,5.142
			l-41.107,41.106c-3.323-3.016-7.483-5.108-12.095-5.887v-56.93c6.881-1.789,12-7.998,12-15.432c0-8.822-7.178-16-16-16
			S96,7.179,96,16.001c0,7.434,5.119,13.642,12,15.432v56.93c-3.638,0.614-6.996,2.039-9.884,4.098L58.798,53.143
			C59.546,51.578,60,49.848,60,48.001c0-6.617-5.383-12-12-12s-12,5.383-12,12s5.383,12,12,12c1.847,0,3.577-0.454,5.141-1.202
			l39.318,39.317c-2.058,2.889-3.484,6.247-4.098,9.885H31.432c-1.789-6.881-7.999-12-15.432-12c-8.822,0-16,7.178-16,16
			s7.178,16,16,16c7.433,0,13.643-5.119,15.432-12h56.93c0.779,4.612,2.871,8.772,5.887,12.096l-41.108,41.106
			c-1.564-0.748-3.294-1.202-5.141-1.202c-6.617,0-12,5.383-12,12s5.383,12,12,12s12-5.383,12-12c0-1.847-0.454-3.577-1.202-5.142
			l41.764-41.764c2.28,1.241,4.79,2.097,7.438,2.544v60.93c-6.881,1.789-12,7.998-12,15.432c0,8.822,7.178,16,16,16s16-7.178,16-16
			c0-7.434-5.119-13.642-12-15.432v-60.93c3.638-0.614,6.996-2.039,9.884-4.098l43.318,43.317c-0.748,1.566-1.202,3.296-1.202,5.143
			c0,6.617,5.383,12,12,12s12-5.383,12-12s-5.383-12-12-12c-1.847,0-3.577,0.454-5.141,1.202l-43.318-43.317
			c2.058-2.889,3.484-6.247,4.098-9.885h60.93c1.789,6.881,7.999,12,15.432,12c8.822,0,16-7.178,16-16
			C228.001,103.179,220.822,96.001,212,96.001z M180,44.001c2.205,0,4,1.795,4,4s-1.795,4-4,4s-4-1.795-4-4
			S177.795,44.001,180,44.001z M48,52.001c-2.205,0-4-1.795-4-4s1.795-4,4-4s4,1.795,4,4S50.205,52.001,48,52.001z M16,120.001
			c-4.412,0-8-3.588-8-8s3.588-8,8-8s8,3.588,8,8S20.412,120.001,16,120.001z M48,184.001c-2.205,0-4-1.795-4-4s1.795-4,4-4
			s4,1.795,4,4S50.205,184.001,48,184.001z M104,16.001c0-4.412,3.588-8,8-8s8,3.588,8,8s-3.588,8-8,8S104,20.413,104,16.001z
			 M120,212.001c0,4.412-3.588,8-8,8s-8-3.588-8-8s3.588-8,8-8S120,207.589,120,212.001z M112,128.001c-8.822,0-16-7.178-16-16
			c0-3.684,1.302-7.037,3.401-9.745l2.854-2.854c2.707-2.099,6.062-3.401,9.745-3.401c8.822,0,16,7.178,16,16
			S120.822,128.001,112,128.001z M180,176.001c2.205,0,4,1.795,4,4s-1.795,4-4,4s-4-1.795-4-4S177.795,176.001,180,176.001z
			 M212,120.001c-4.412,0-8-3.588-8-8s3.588-8,8-8s8,3.588,8,8S216.412,120.001,212,120.001z"/>
	</g>
</g>
<g>
</g>
<g>
</g>
<g>
</g>
<g>
</g>
<g>
</g>
<g>
</g>
<g>
</g>
<g>
</g>
<g>
</g>
<g>
</g>
<g>
</g>
<g>
</g>
<g>
</g>
<g>
</g>
<g>
</g>
</svg>
