<?xml version="1.0" encoding="iso-8859-1"?>
<!-- Generator: Adobe Illustrator 19.0.0, SVG Export Plug-In . SVG Version: 6.00 Build 0)  -->
<svg version="1.1" id="Layer_1" xmlns="http://www.w3.org/2000/svg" xmlns:xlink="http://www.w3.org/1999/xlink" x="0px" y="0px"
	 viewBox="0 0 208 208" style="enable-background:new 0 0 208 208;" xml:space="preserve">
<g>
	<g>
		<g>
			<path d="M94,72c19.852,0,36-16.15,36-36S113.852,0,94,0S58,16.15,58,36S74.148,72,94,72z M94,8c15.438,0,28,12.56,28,28
				s-12.562,28-28,28S66,51.44,66,36S78.562,8,94,8z"/>
			<path d="M162,48c-17.644,0-32,14.356-32,32s14.356,32,32,32s32-14.356,32-32S179.644,48,162,48z M162,104
				c-13.234,0-24-10.766-24-24s10.766-24,24-24s24,10.766,24,24S175.234,104,162,104z"/>
			<path d="M146,124c-15.438,0-28,12.56-28,28s12.562,28,28,28s28-12.56,28-28S161.438,124,146,124z M146,172
				c-11.027,0-20-8.973-20-20c0-11.027,8.973-20,20-20c11.027,0,20,8.973,20,20C166,163.027,157.027,172,146,172z"/>
			<path d="M90,160c-13.234,0-24,10.766-24,24s10.766,24,24,24s24-10.766,24-24S103.234,160,90,160z M90,200
				c-8.824,0-16-7.178-16-16s7.176-16,16-16s16,7.178,16,16S98.824,200,90,200z"/>
			<path d="M34,128c-11.027,0-20,8.973-20,20c0,11.027,8.973,20,20,20s20-8.973,20-20C54,136.973,45.027,128,34,128z M34,160
				c-6.617,0-12-5.383-12-12s5.383-12,12-12s12,5.383,12,12S40.617,160,34,160z"/>
			<path d="M30,100c8.824,0,16-7.178,16-16s-7.176-16-16-16s-16,7.178-16,16S21.176,100,30,100z M30,76c4.41,0,8,3.588,8,8
				s-3.59,8-8,8s-8-3.588-8-8S25.59,76,30,76z"/>
		</g>
	</g>
</g>
<g>
</g>
<g>
</g>
<g>
</g>
<g>
</g>
<g>
</g>
<g>
</g>
<g>
</g>
<g>
</g>
<g>
</g>
<g>
</g>
<g>
</g>
<g>
</g>
<g>
</g>
<g>
</g>
<g>
</g>
</svg>
